<svg xmlns="http://www.w3.org/2000/svg" enable-background="new 0 0 32 32" viewBox="0 0 32 32"><polygon fill="#FF4454" points="4 9 17 25 12 25 4 16"/><polygon fill="#FF4454" points="19 19 28 8 28 16 25 19"/><path fill="#C41C38" d="M4.772,7.364C4.503,7.038,4.06,6.917,3.662,7.059C3.265,7.201,3,7.578,3,8v8c0,0.245,0.09,0.481,0.252,0.665l8,9C11.442,25.878,11.714,26,12,26h6c0.387,0,0.739-0.223,0.904-0.573s0.114-0.764-0.132-1.063L4.772,7.364z M12.449,24L5,15.62v-4.833L15.881,24H12.449z M28.336,7.058c-0.399-0.141-0.842-0.02-1.11,0.309l-9,11c-0.245,0.299-0.295,0.712-0.13,1.062S18.614,20,19,20h6c0.265,0,0.52-0.105,0.707-0.293l3-3C28.895,16.52,29,16.265,29,16V8C29,7.577,28.734,7.2,28.336,7.058z M27,15.586L24.586,18H21.11L27,10.801V15.586z"/></svg>